<?xml version="1.0" encoding="UTF-8"?>
<svg version="1.1" viewBox="0 0 2048 1230" width="644" height="387" xmlns="http://www.w3.org/2000/svg">
<path transform="translate(223,452)" d="m0 0h8l12 5 27 15 17 9 11 6 19 10 23 11 35 16 21 9 10 5 30 12 34 13 33 12 38 13 20 6 50 14 45 12 36 8 45 9 63 10 67 9 32 3 43 3 22 1 43 1h50l57-2 55-4 33-4 65-9 48-8 59-12 40-10 51-14 40-12 40-13 20-8 25-9 33-13 16-6 5-1h10l11 4 6 7 3 9-1 9-5 9-7 7-54 36-26 15-28 15-18 10-32 15-59 25-28 10-36 12-41 12-18 5-21 6-45 10-43 8-47 7-54 6-40 3-19 1h-86l-46-3-42-4-42-5-54-9-43-9-36-9-47-14-35-11-44-16-56-24-26-12-43-22-19-10-26-15-9-6-20-12-20-13-15-10-16-12-19-13-16-12-13-11-12-9-11-9-13-11-14-12-9-8-5-7-1-9 3-6z" fill="#FE9706"/>
<path transform="translate(1674,421)" d="m0 0h54l29 3 25 5 17 6 8 6 3 3 4 12 1 6v25l-7 43-6 25-9 29-9 22-7 16-14 24-11 18-8 10-11 13-16 17-10 8-6 3h-11l-5-5 1-9 6-16 5-11 11-29 10-29 10-33 7-27 3-18v-27l-4-10-9-7-15-6-21-3-11-1h-48l-45 3-58 7h-7l-5-6-1-7 6-9 11-8 29-16 19-8 26-8 29-6 20-3z" fill="#FE9706"/>
</svg>
