<?xml version="1.0" encoding="UTF-8"?>
<svg version="1.1" viewBox="0 0 2000 2000" width="500" height="500" xmlns="http://www.w3.org/2000/svg">
<path transform="translate(724,850)" d="m0 0h123l22 1 27 4 14 5 15 8 10 9 8 10 6 14 3 14v20l-3 17-5 12-8 10-5 6-8 6-3 3 16 8 11 9 8 11 8 16 3 13v32l-3 12-8 16-6 8-4 5-12 9-14 7-20 6-13 2-25 1h-146l-11-1-6-3-4-4-1-3-1-11v-252l2-9 4-5 10-5zm30 49-1 1v72h97l15-1 14-4 6-5 4-9 2-15-1-16-4-11-7-6-13-4-5-1zm39 118-17 1-10 3-8 6-4 5-1 2v60l23 1 103-1 13-3 5-4 5-8 2-8v-31l-3-8-9-8-9-4-9-2-49-1z" fill="#FEFEFE"/>
<path transform="translate(1484,850)" d="m0 0h99l29 1 26 4 16 5 16 9 11 9 9 11 8 16 4 17 1 11v18l-2 15-5 16-7 14-9 11-11 9-17 9-7 1 3 5 5 8 8 18 17 29 9 13 10 17 12 21 2 5-1 1-32 1h-29l-5-3-14-25-14-24-6-9-15-27-6-16-5-8h-66l-9 2-10 6-4 8-1 5-1 90-5 1h-42l-12-1-1-2-1-22v-247l2-10 6-7 6-3 4-1zm10 49-1 1v86h114l13-3 9-5 7-7 4-9 1-6v-28l-3-11-5-8-5-4-15-4-6-1z" fill="#FEFEFE"/>
<path transform="translate(1106,850)" d="m0 0h221l2 1-1 5-9 24-8 18-2 2h-170v71h140l1 4-10 27-8 16-3 1-98 1-9 3-8 5-4 6-1 60h190l-2 9-13 32-5 8-42 1h-166l-12-1-6-4-4-5-1-6v-261l3-7 5-5 7-4z" fill="#FEFEFE"/>
<path transform="translate(305,850)" d="m0 0h37l9 1 1 3v172l1 15 4 17 5 11 6 9 7 7 12 6 22 5 9 1h31l14-2 19-5 11-7 7-8 8-16 4-16 1-10 1-178 2-4 21-1h16l23 1v183l-2 20-5 21-6 14-14 19-11 11-13 10-14 7-15 5-22 5-21 3h-41l-28-4-19-5-15-6-10-6-13-10-12-12-11-15-6-12-5-17-3-17-1-11v-178l2-5z" fill="#FEFEFE"/>
</svg>
