<?xml version="1.0" encoding="UTF-8"?>
<svg version="1.1" viewBox="0 0 1161 830" width="1161" height="830" xmlns="http://www.w3.org/2000/svg">
<path transform="translate(1)" d="m0 0h344l10 14 78 108 14 19 10 14 52 72 14 19 10 14 39 54 8 11 2 1 2-5 10-13 12-17 13-18 14-19 10-14 52-72 14-19 10-14 65-90 14-19 10-14 9-12h344v233l-1 1h-88v362h89v233l-1 1h-436v-234h94l-1-234-12 17-28 38-13 18-28 38-13 18-14 19-13 18-28 38-13 18-14 19-13 18-28 38-13 18-5 7-4-2-13-18-28-38-13-18-14-19-13-18-28-38-13-18-14-19-13-18-28-38-13-18-28-38-13-18-2-3-1 233h94v234h-437v-234h88v-362h-88z" fill="#FFCA05"/>
</svg>
